<svg width="218" height="30" viewBox="0 0 218 30" fill="none" xmlns="http://www.w3.org/2000/svg">
<path d="M11.6 18.84L8.64 22V29H0.8V0.999998H8.64V12.64L19.48 0.999998H28.2L16.76 13.4L28.8 29H19.6L11.6 18.84ZM40.5388 29.36C38.2188 29.36 36.1254 28.88 34.2588 27.92C32.3921 26.96 30.9254 25.6267 29.8587 23.92C28.8188 22.2133 28.2988 20.28 28.2988 18.12C28.2988 15.9867 28.8188 14.0667 29.8587 12.36C30.9254 10.6533 32.3788 9.33333 34.2188 8.4C36.0854 7.44 38.1921 6.96 40.5388 6.96C42.8854 6.96 44.9921 7.44 46.8588 8.4C48.7254 9.33333 50.1788 10.6533 51.2188 12.36C52.2588 14.04 52.7788 15.96 52.7788 18.12C52.7788 20.28 52.2588 22.2133 51.2188 23.92C50.1788 25.6267 48.7254 26.96 46.8588 27.92C44.9921 28.88 42.8854 29.36 40.5388 29.36ZM40.5388 23.32C41.8721 23.32 42.9654 22.8667 43.8188 21.96C44.6721 21.0267 45.0988 19.7467 45.0988 18.12C45.0988 16.52 44.6721 15.2667 43.8188 14.36C42.9654 13.4533 41.8721 13 40.5388 13C39.2054 13 38.1121 13.4533 37.2588 14.36C36.4054 15.2667 35.9788 16.52 35.9788 18.12C35.9788 19.7467 36.4054 21.0267 37.2588 21.96C38.1121 22.8667 39.2054 23.32 40.5388 23.32ZM64.1794 29.36C62.366 29.36 60.5794 29.16 58.8194 28.76C57.0594 28.3333 55.646 27.7867 54.5794 27.12L56.8594 21.92C57.846 22.5333 59.0194 23.0267 60.3794 23.4C61.7394 23.7467 63.086 23.92 64.4194 23.92C65.646 23.92 66.5127 23.8 67.0194 23.56C67.5527 23.2933 67.8194 22.92 67.8194 22.44C67.8194 21.96 67.4994 21.6267 66.8594 21.44C66.246 21.2267 65.2594 21.0267 63.8994 20.84C62.166 20.6267 60.686 20.3467 59.4594 20C58.2594 19.6533 57.2194 19.0133 56.3394 18.08C55.4594 17.1467 55.0194 15.84 55.0194 14.16C55.0194 12.7733 55.4327 11.5467 56.2594 10.48C57.086 9.38667 58.286 8.53333 59.8594 7.92C61.4594 7.28 63.366 6.96 65.5794 6.96C67.1527 6.96 68.7127 7.12 70.2594 7.44C71.806 7.76 73.0994 8.21333 74.1394 8.8L71.8594 13.96C69.9394 12.8933 67.8594 12.36 65.6194 12.36C64.4194 12.36 63.5394 12.5067 62.9794 12.8C62.4194 13.0667 62.1394 13.4267 62.1394 13.88C62.1394 14.3867 62.446 14.7467 63.0594 14.96C63.6727 15.1467 64.686 15.3467 66.0994 15.56C67.886 15.8267 69.366 16.1333 70.5394 16.48C71.7127 16.8267 72.726 17.4667 73.5794 18.4C74.4594 19.3067 74.8994 20.5867 74.8994 22.24C74.8994 23.6 74.486 24.8267 73.6594 25.92C72.8327 26.9867 71.606 27.8267 69.9794 28.44C68.3794 29.0533 66.446 29.36 64.1794 29.36ZM101.094 7.32V29H93.8544V26.84C92.441 28.52 90.3077 29.36 87.4544 29.36C85.481 29.36 83.681 28.9067 82.0544 28C80.4544 27.0667 79.1744 25.7467 78.2144 24.04C77.281 22.3333 76.8144 20.36 76.8144 18.12C76.8144 15.88 77.281 13.92 78.2144 12.24C79.1744 10.5333 80.4544 9.22667 82.0544 8.32C83.681 7.41333 85.481 6.96 87.4544 6.96C90.0144 6.96 92.0277 7.70667 93.4944 9.2V7.32H101.094ZM89.0544 23.32C90.3877 23.32 91.481 22.8667 92.3344 21.96C93.1877 21.0267 93.6144 19.7467 93.6144 18.12C93.6144 16.52 93.1877 15.2667 92.3344 14.36C91.481 13.4533 90.3877 13 89.0544 13C87.721 13 86.6277 13.4533 85.7744 14.36C84.921 15.2667 84.4944 16.52 84.4944 18.12C84.4944 19.7467 84.921 21.0267 85.7744 21.96C86.6277 22.8667 87.721 23.32 89.0544 23.32ZM120.107 6.96C122.8 6.96 124.96 7.76 126.587 9.36C128.24 10.96 129.067 13.3733 129.067 16.6V29H121.467V17.84C121.467 14.88 120.28 13.4 117.907 13.4C116.6 13.4 115.547 13.8267 114.747 14.68C113.974 15.5333 113.587 16.8133 113.587 18.52V29H105.987V7.32H113.227V9.68C114.08 8.8 115.094 8.13333 116.267 7.68C117.44 7.2 118.72 6.96 120.107 6.96ZM155.718 9.8C153.372 8.49333 150.985 7.62667 148.558 7.2V29H140.638V7.2C138.158 7.62667 135.772 8.49333 133.478 9.8L130.838 4.04C132.785 2.86667 134.932 1.97333 137.278 1.36C139.652 0.746665 142.092 0.439998 144.598 0.439998C147.105 0.439998 149.532 0.746665 151.878 1.36C154.252 1.97333 156.412 2.86667 158.358 4.04L155.718 9.8ZM173.405 0.999998C175.938 0.999998 178.138 1.42666 180.005 2.28C181.871 3.10667 183.311 4.30667 184.325 5.88C185.338 7.42667 185.845 9.25333 185.845 11.36C185.845 13.4667 185.338 15.2933 184.325 16.84C183.311 18.3867 181.871 19.5867 180.005 20.44C178.138 21.2667 175.938 21.68 173.405 21.68H168.525V29H160.605V0.999998H173.405ZM172.925 15.44C174.551 15.44 175.778 15.0933 176.605 14.4C177.431 13.68 177.845 12.6667 177.845 11.36C177.845 10.0533 177.431 9.04 176.605 8.32C175.778 7.6 174.551 7.24 172.925 7.24H168.525V15.44H172.925ZM200.866 7.12V22.88H205.386V29H188.386V22.88H192.946V7.12H188.386V0.999998H205.386V7.12H200.866ZM212.507 29.36C211.227 29.36 210.147 28.9333 209.267 28.08C208.387 27.2267 207.947 26.1467 207.947 24.84C207.947 23.5067 208.374 22.4267 209.227 21.6C210.107 20.7733 211.201 20.36 212.507 20.36C213.841 20.36 214.934 20.7733 215.787 21.6C216.641 22.4267 217.067 23.5067 217.067 24.84C217.067 26.1467 216.627 27.2267 215.747 28.08C214.894 28.9333 213.814 29.36 212.507 29.36Z" fill="black"/>
</svg>
